<?xml version="1.0" ?><!DOCTYPE svg  PUBLIC '-//W3C//DTD SVG 1.1//EN'  'http://www.w3.org/Graphics/SVG/1.1/DTD/svg11.dtd'><svg enable-background="new 0 0 512 512" height="512px" id="Слой_1" version="1.1" viewBox="0 0 512 512" width="512px" xml:space="preserve" xmlns="http://www.w3.org/2000/svg" xmlns:xlink="http://www.w3.org/1999/xlink"><path d="M511.988,97.147c-18.843,8.343-39.076,13.968-60.325,16.531c21.688-13,38.342-33.593,46.17-58.123  c-20.278,12.031-42.764,20.781-66.685,25.499c-19.155-20.437-46.466-33.186-76.668-33.186c-58.014,0-105.042,47.029-105.042,105.059  c0,8.25,0.922,16.25,2.719,23.968c-87.293-4.407-164.679-46.218-216.489-109.81c-9.062,15.531-14.234,33.593-14.234,52.842  c0,36.467,18.547,68.622,46.732,87.465c-17.218-0.563-33.405-5.281-47.592-13.125c0,0.406,0,0.844,0,1.281  c0,50.936,36.217,93.403,84.262,103.09c-8.796,2.375-18.093,3.656-27.67,3.656c-6.766,0-13.359-0.656-19.765-1.875  c13.374,41.749,52.169,72.122,98.12,72.966c-35.951,28.155-81.23,44.967-130.447,44.967c-8.484,0-16.843-0.469-25.063-1.469  c46.498,29.844,101.684,47.249,161.009,47.249c193.225,0,298.845-160.149,298.845-299.021c0-4.531-0.094-9.093-0.281-13.593  C480.084,136.708,497.911,118.209,511.988,97.147z" id="Twitter_2_"/></svg>