<?xml version="1.0" ?><!DOCTYPE svg  PUBLIC '-//W3C//DTD SVG 1.1//EN'  'http://www.w3.org/Graphics/SVG/1.1/DTD/svg11.dtd'><svg enable-background="new 0 0 512 512" height="512px" id="Слой_1" version="1.1" viewBox="0 0 512 512" width="512px" xml:space="preserve" xmlns="http://www.w3.org/2000/svg" xmlns:xlink="http://www.w3.org/1999/xlink"><path d="M511.74,134.926c-2.297,49.842-37.092,118.152-104.417,204.837C337.72,430.259,279.08,479.571,230.91,479.571  c-29.827,0-55.356-31.594-75.98-86.717c-13.781-50.561-27.561-101.121-41.342-151.649c-15.312-55.092-31.186-87.153-49.31-82.715  c-3.719,0.937-17.233,8.093-40.17,24.155L0.015,151.583c25.265-22.218,50.201-44.436,74.7-66.654  c33.702-29.155,58.997-44.499,75.855-45.998c39.857-3.844,64.388,23.405,73.591,81.747c9.921,62.938,16.827,102.09,20.687,117.402  c11.483,52.249,24.123,78.31,37.937,78.31c10.702,0,26.813-16.938,48.278-50.812c21.452-33.874,32.921-59.623,34.468-77.372  c3.062-29.217-8.438-43.873-34.468-43.873c-12.267,0-27.139,6.25-40.139,11.843C313.405,88.71,366.403,30.212,437.368,32.493  C489.96,34.023,514.756,68.147,511.74,134.926z" id="Vimeo_2_"/></svg>